<svg xmlns="http://www.w3.org/2000/svg" xmlns:xlink="http://www.w3.org/1999/xlink" viewBox="0 0 800 450"><defs><clipPath id="a"><path d="M371.821,276.587l-15.479,17.678a3.742,3.742,0,0,0-.618,3.936,3.54,3.54,0,0,0,3.225,2.189h32.943a3.547,3.547,0,0,0,3.229-2.185,3.765,3.765,0,0,0-.618-3.94l-15.479-17.678a4.748,4.748,0,0,0-7.2,0" fill="none" clip-rule="evenodd"/></clipPath><clipPath id="b"><path d="M409.968,244.106a16.364,16.364,0,1,0,16.364-16.443,16.368,16.368,0,0,0-16.364,16.443" fill="none" clip-rule="evenodd"/></clipPath><clipPath id="c"><path d="M311.785,258.656a16.364,16.364,0,1,0,16.364-16.446,16.365,16.365,0,0,0-16.364,16.446" fill="none" clip-rule="evenodd"/></clipPath><clipPath id="d"><path d="M428.254,173.661l-31.375-.032v-9.518a43.614,43.614,0,1,0-28.7.068v9.468l-48.768.014a17.094,17.094,0,0,0-12.372,4.911,17.463,17.463,0,0,0-5.221,12.36c0,9.811,7.932,17.011,17.589,17.011H429.618c19.307,0,35.7,25.007,35.7,54.443s-16.385,55.621-35.7,55.621H319.432c-9.657,0-17.507,6.7-17.507,16.508s7.829,16.782,17.482,16.782H428.254c39.21,0,69.928-39.018,69.928-88.822s-30.718-88.814-69.928-88.814m-45.683-34.385a16.451,16.451,0,0,1-15.264-10.211,16.782,16.782,0,0,1,3.511-18.165,16.33,16.33,0,0,1,17.95-3.646,16.671,16.671,0,0,1-6.2,32.022" fill="none" clip-rule="evenodd"/></clipPath></defs><path d="M0,0H800V450H0Z" fill="#252525"/><g clip-path="url(#a)"><rect x="337.564" y="257.076" width="75.715" height="61.171" fill="#c4c4c4"/></g><g clip-path="url(#b)"><rect x="392.11" y="209.806" width="68.443" height="68.443" fill="#c4c4c4"/></g><g clip-path="url(#c)"><rect x="293.927" y="224.353" width="68.443" height="68.439" fill="#c4c4c4"/></g><g clip-path="url(#d)"><rect x="283.961" y="60.714" width="232.079" height="308.44" fill="#c4c4c4"/></g></svg>